<svg xmlns="http://www.w3.org/2000/svg" version="1.1" xmlns:xlink="http://www.w3.org/1999/xlink" xmlns:svgjs="http://svgjs.dev/svgjs" width="1500" height="1500" viewBox="0 0 1500 1500"><rect width="1500" height="1500" fill="#ffffff"></rect><g transform="matrix(0.6666666666666666,0,0,0.6666666666666666,249.39393939393938,636.4257915947035)"><svg viewBox="0 0 396 90" data-background-color="#ffffff" preserveAspectRatio="xMidYMid meet" height="340" width="1500" xmlns="http://www.w3.org/2000/svg" xmlns:xlink="http://www.w3.org/1999/xlink"><g id="tight-bounds" transform="matrix(1,0,0,1,0.2400000000000091,0.09564157269124962)"><svg viewBox="0 0 395.52 89.8087168546175" height="89.8087168546175" width="395.52"><g><svg viewBox="0 0 395.52 89.8087168546175" height="89.8087168546175" width="395.52"><g><svg viewBox="0 0 395.52 89.8087168546175" height="89.8087168546175" width="395.52"><g id="textblocktransform"><svg viewBox="0 0 395.52 89.8087168546175" height="89.8087168546175" width="395.52" id="textblock"><g><svg viewBox="0 0 395.52 89.8087168546175" height="89.8087168546175" width="395.52"><g transform="matrix(1,0,0,1,0,0)"><svg width="395.52" viewBox="1.15 -35.8 164.03 37.25" height="89.8087168546175" data-palette-color="#ff2149"><path d="M8.85-22.5L8.85-22.5 8.9-16.25 8.7-7.6Q8.75-7.4 8.85-7.4 8.95-7.4 9-7.5L9-7.5Q10-8.9 11.48-8.9 12.95-8.9 12.95-8.3L12.95-8.3Q12.95-6.4 13.68-5.38 14.4-4.35 15.73-4.35 17.05-4.35 18.28-6.15 19.5-7.95 19.5-10.95L19.5-10.95Q19.5-11.95 19.1-13.35L19.1-13.35Q18.3-16.15 16.1-17.1L16.1-17.1Q14.5-17.75 10.9-17.75L10.9-17.75Q10.5-17.75 10.5-18.3L10.5-18.3Q10.5-21.1 11.5-21.2L11.5-21.2Q12.85-21.2 14.35-21.9L14.35-21.9Q17.35-23.3 17.35-27.65L17.35-27.65Q17.35-32.35 11.95-32.35L11.95-32.35 10.4-32.25Q9.5-32.05 9.4-31.5L9.4-31.5 9.4-31.35Q8.85-29.35 8.85-22.5ZM1.5 0.7L1.5 0.7 1.6 0.15Q2.1-0.75 2.45-7.18 2.8-13.6 2.8-19.18 2.8-24.75 2.58-28.13 2.35-31.5 1.35-33L1.35-33Q1.15-33.25 1.15-33.6 1.15-33.95 1.75-34.2L1.75-34.2Q5.85-35.8 12.9-35.8L12.9-35.8Q14.65-35.8 16.7-35.33 18.75-34.85 20.08-34.15 21.4-33.45 22.48-32 23.55-30.55 23.7-28.55L23.7-28.55Q23.7-21.3 17.7-20.2L17.7-20.2Q17.4-20.1 17.4-19.98 17.4-19.85 17.65-19.7L17.65-19.7Q20.75-19.2 22.85-17.2L22.85-17.2Q23.9-16.25 24.75-14.25 25.6-12.25 25.6-9.65L25.6-9.65Q25.6-6.3 23.65-3.3L23.65-3.3Q22.05-0.85 19 0.2L19 0.2Q17.3 0.8 15.2 0.8L15.2 0.8Q9.95 0.8 8.55-2.55L8.55-2.55Q8.5-2.7 8.4-2.7L8.4-2.7 8.2-2.5Q7.15 1 2.2 1.15L2.2 1.15Q1.5 1.15 1.5 0.7ZM32.45-18.85L32.45-18.85Q31.15-18.8 30.57-18.78 30-18.75 30-19.05 30-19.35 30.3-19.65L30.3-19.65Q33.5-22.6 41.1-22.6L41.1-22.6Q43.7-22.6 45.2-22.15L45.2-22.15 45.7-22Q46.3-21.75 46.3-21.45L46.3-21.45Q46.3-21.2 45.95-21.05L45.95-21.05Q44.6-20.65 43.35-19.78 42.1-18.9 42.1-18.55L42.1-18.55 42.4-18.2Q44-17.3 44.87-15.35 45.75-13.4 45.85-11.9L45.85-11.9 45.95-10.35Q45.95-5.4 43.2-2.2 40.45 1 35.7 1L35.7 1Q33.3 1 31.55 0.15 29.8-0.7 28.97-1.78 28.15-2.85 27.65-4.2L27.65-4.2Q27.05-6.05 27.05-8.03 27.05-10 27.72-12 28.4-14 29.27-14.95 30.15-15.9 31.25-16.5L31.25-16.5Q32.65-17.25 33.5-17.25 34.35-17.25 34.35-16.9L34.35-16.9 34.05-16.4Q32.95-15.1 32.47-13 32-10.9 32-9.28 32-7.65 32.4-6.05 32.8-4.45 33.3-3.68 33.8-2.9 34.45-2.5L34.45-2.5Q35.4-1.9 36.45-1.9 37.5-1.9 38.5-2.73 39.5-3.55 39.95-4.9L39.95-4.9Q40.85-7.4 40.85-10.05L40.85-10.05Q40.85-14.25 38.72-16.55 36.6-18.85 32.45-18.85ZM66.25-22.25L66.25-22.25Q65.34-16.85 65.34-8.5L65.34-8.5Q65.34-2.35 65.84-0.4L65.84-0.4 66.05 0.25Q66.05 0.9 64.95 0.9L64.95 0.9Q61.09 0.9 60.55-1.25L60.55-1.25Q60.5-1.5 60.32-1.5 60.15-1.5 60-1.3L60-1.3Q58.45 0.75 55.2 0.75L55.2 0.75Q53.4 0.75 51.45-0.15L51.45-0.15Q50.25-0.7 49.5-2.08 48.75-3.45 48.75-5.45L48.75-5.45 49.5-16.4Q49.5-19.85 48.8-21.3L48.8-21.3Q48.55-21.85 48.55-22L48.55-22Q48.55-22.3 48.8-22.4L48.8-22.4Q49.59-22.65 50.84-22.65L50.84-22.65Q55.7-22.65 55.7-18.65L55.7-18.65Q55.7-17.4 54.67-12.95 53.65-8.5 53.65-6.63 53.65-4.75 54.47-3.75 55.3-2.75 56.77-2.75 58.25-2.75 59.09-3.8 59.95-4.85 60.09-5.9L60.09-5.9 60.25-6.95Q60.45-8.7 60.45-13.1 60.45-17.5 60.17-18.68 59.9-19.85 59.9-20.15L59.9-20.15Q59.9-21.4 61.9-22.13 63.9-22.85 65.5-22.85L65.5-22.85Q66.25-22.85 66.25-22.25ZM68.64 0.35L68.64 0.35Q69.54-5.05 69.54-12.6 69.54-20.15 69.09-22.4L69.09-22.4Q69.09-23.05 70.59-23.05L70.59-23.05Q72.89-23.05 73.64-21.3L73.64-21.3Q73.69-21.15 73.89-21.15 74.09-21.15 74.19-21.25L74.19-21.25Q75.74-22.85 78.99-22.85 82.24-22.85 84.14-21.2 86.04-19.55 86.04-16.4L86.04-16.4Q86.04-14.5 85.72-11 85.39-7.5 85.39-5.8L85.39-5.8Q85.39-1.75 86.74 0.05L86.74 0.05Q86.94 0.3 86.94 0.55L86.94 0.55Q86.94 1.2 85.54 1.2L85.54 1.2Q79.34 1.2 79.34-4.3L79.34-4.3Q79.34-6.4 80.29-10.15 81.24-13.9 81.24-15.85L81.24-15.85Q81.24-19.85 77.94-19.85L77.94-19.85Q76.34-19.85 75.52-18.9 74.69-17.95 74.59-16.73 74.49-15.5 74.49-12.1L74.49-12.1Q74.49-6.9 74.84-3.05L74.84-3.05 74.94-1.95Q74.94-0.55 73.12 0.23 71.29 1 69.97 1 68.64 1 68.64 0.35ZM87.84-19.5L87.84-19.5 87.99-21.5Q88.04-21.95 88.69-21.95L88.69-21.95 90.44-21.95 90.24-25.95 90.24-26.15Q90.24-27.3 91.99-28.35 93.74-29.4 95.19-29.4L95.19-29.4Q95.64-29.4 95.64-29L95.64-29 95.64-28.95Q95.44-27.6 95.24-22L95.24-22Q97.44-22 98.04-22.1 98.64-22.2 98.69-22.2L98.69-22.2Q99.04-22.2 99.04-21.6 99.04-21 98.49-20.08 97.94-19.15 97.29-19.1L97.29-19.1 95.19-19.1Q95.14-17.4 95.14-13.38 95.14-9.35 95.22-6.75 95.29-4.15 95.39-2.83 95.49-1.5 95.62-0.7 95.74 0.1 95.82 0.45 95.89 0.8 95.89 0.9L95.89 0.9Q95.89 1.4 95.24 1.45L95.24 1.45Q93.29 1.45 91.37 0.9 89.44 0.35 89.44-1L89.44-1Q90.49-9.4 90.49-19.05L90.49-19.05Q89.14-19.05 88.44-18.95L88.44-18.95 88.39-18.95Q87.94-18.95 87.84-19.5ZM116.49-15L116.49-15 116.39-8.6Q116.39-1.95 117.84-0.6L117.84-0.6Q118.04-0.4 118.04-0.15L118.04-0.15Q118.04 0.6 114.81 0.6 111.59 0.6 111.39-1.3L111.39-1.3Q111.34-1.75 111.34-3.15L111.34-3.15 111.54-11.15Q111.54-11.5 111.14-11.5L111.14-11.5Q108.74-11.5 106.64-10.15 104.54-8.8 104.54-6.7L104.54-6.7Q104.54-5.6 105.14-4.85 105.74-4.1 106.61-4.1 107.49-4.1 108.06-4.45 108.64-4.8 108.74-4.85L108.74-4.85Q109.59-4.75 109.59-3.08 109.59-1.4 108.04-0.38 106.49 0.65 104.79 0.65 103.09 0.65 101.86 0.05 100.64-0.55 100.09-1.3 99.54-2.05 99.19-3L99.19-3Q98.84-4.15 98.84-5L98.84-5Q98.84-8.5 101.04-10.6 103.24-12.7 106.69-13.6L106.69-13.6Q111.24-14.5 111.44-15.25L111.44-15.25Q111.59-15.8 111.59-17.1L111.59-17.1Q111.59-19.75 108.89-19.75L108.89-19.75Q107.74-19.75 106.84-19.03 105.94-18.3 105.94-17.2L105.94-17.2 106.24-16Q106.14-15.15 104.44-15L104.44-15 103.89-14.95Q102.39-14.95 101.51-15.7 100.64-16.45 100.64-17.7L100.64-17.7Q100.64-18.5 101.16-19.48 101.69-20.45 102.49-21.05 103.29-21.65 104.96-22.13 106.64-22.6 108.19-22.6 109.74-22.6 110.59-22.5 111.44-22.4 112.91-22.03 114.39-21.65 115.36-20.6 116.34-19.55 116.41-18.38 116.49-17.2 116.49-15ZM124.69-26.75L124.69-26.75 123.49-26.8Q122.14-26.8 121.74-26.15L121.74-26.15Q121.64-26 121.49-26L121.49-26Q120.84-26 120.84-28.23 120.84-30.45 121.51-31.05 122.19-31.65 123.86-31.65 125.54-31.65 126.14-31.08 126.74-30.5 126.74-29.15 126.74-27.8 126.29-27.28 125.84-26.75 124.69-26.75ZM120.69-1.5L120.69-1.5 121.24-13.15Q121.24-17.3 120.29-18.8L120.29-18.8Q119.99-19.3 119.59-19.55L119.59-19.55Q119.29-19.65 119.29-19.95L119.29-19.95Q119.29-20.85 121.84-21.7 124.39-22.55 125.56-22.55 126.74-22.55 126.79-21.95L126.79-21.95Q126.79-20.95 126.51-16.28 126.24-11.6 126.24-6.45 126.24-1.3 126.84-0.05L126.84-0.05Q126.99 0.2 126.99 0.45L126.99 0.45Q126.99 1.1 125.09 1.1 123.19 1.1 121.19 0.1L121.19 0.1Q120.69-0.15 120.69-1.5ZM130.03 0.35L130.03 0.35Q130.93-5.05 130.93-12.6 130.93-20.15 130.48-22.4L130.48-22.4Q130.48-23.05 131.98-23.05L131.98-23.05Q134.28-23.05 135.03-21.3L135.03-21.3Q135.08-21.15 135.28-21.15 135.48-21.15 135.58-21.25L135.58-21.25Q137.13-22.85 140.38-22.85 143.63-22.85 145.53-21.2 147.43-19.55 147.43-16.4L147.43-16.4Q147.43-14.5 147.11-11 146.78-7.5 146.78-5.8L146.78-5.8Q146.78-1.75 148.13 0.05L148.13 0.05Q148.33 0.3 148.33 0.55L148.33 0.55Q148.33 1.2 146.93 1.2L146.93 1.2Q140.73 1.2 140.73-4.3L140.73-4.3Q140.73-6.4 141.68-10.15 142.63-13.9 142.63-15.85L142.63-15.85Q142.63-19.85 139.33-19.85L139.33-19.85Q137.73-19.85 136.91-18.9 136.08-17.95 135.98-16.73 135.88-15.5 135.88-12.1L135.88-12.1Q135.88-6.9 136.23-3.05L136.23-3.05 136.33-1.95Q136.33-0.55 134.51 0.23 132.68 1 131.36 1 130.03 1 130.03 0.35ZM165.18-6.85L165.18-6.85Q165.18-4.7 164.36-3.1 163.53-1.5 162.48-0.75 161.43 0 159.98 0.45L159.98 0.45Q158.08 1.05 156.53 1.05L156.53 1.05Q153.28 1.05 151.13-0.23 148.98-1.5 148.98-4.3L148.98-4.3Q148.98-5.95 149.88-7L149.88-7Q151.28-8.55 153.23-8.55L153.23-8.55Q153.83-8.55 153.83-8L153.83-8Q153.83-7.95 153.61-7.23 153.38-6.5 153.38-5.4 153.38-4.3 154.26-3.45 155.13-2.6 156.38-2.6 157.63-2.6 158.38-3.03 159.13-3.45 159.43-4.1L159.43-4.1Q159.88-5 159.88-5.8L159.88-5.8Q159.88-7.25 158.43-8.3 156.98-9.35 155.23-9.95 153.48-10.55 152.03-11.95 150.58-13.35 150.58-15.45L150.58-15.45Q150.58-19.05 152.86-20.85 155.13-22.65 159.03-22.65L159.03-22.65Q160.73-22.65 162.61-22.18 164.48-21.7 164.48-20.58 164.48-19.45 164.11-18.5 163.73-17.55 163.18-17.55L163.18-17.55Q162.88-17.55 162.78-17.78 162.68-18 162.43-18.3 162.18-18.6 161.23-19.07 160.28-19.55 159.61-19.55 158.93-19.55 158.71-19.53 158.48-19.5 157.93-19.38 157.38-19.25 156.93-19L156.93-19Q155.78-18.35 155.78-17.1L155.78-17.1Q155.78-16.3 156.13-15.93 156.48-15.55 156.68-15.35 156.88-15.15 157.38-14.88 157.88-14.6 158.08-14.5 158.28-14.4 158.98-14.08 159.68-13.75 159.88-13.65L159.88-13.65Q165.18-11.15 165.18-6.85Z" opacity="1" transform="matrix(1,0,0,1,0,0)" fill="#ff2149" class="wordmark-text-0" data-fill-palette-color="primary" id="text-0"></path></svg></g></svg></g></svg></g></svg></g></svg></g><defs></defs></svg><rect width="395.52" height="89.8087168546175" fill="none" stroke="none" visibility="hidden"></rect></g></svg></g></svg>